# xmcd
#
# Track frame offsets:
#	150
#	16745
#	38998
#	59398
#	86506
#	103946
#	117023
#	127686
#	147304
#	167804
#	182184
#	200032
#	220130
#	235868
#	251796
#	268591
#	290866
#	314119
#
# Disc length: 4447 seconds
#
# Revision: 1
# Processed by: cddbd v1.5.1PL0 Copyright (c) Steve Scherf et al.
# Submitted via: audiograbber 1.83.01
#
DISCID=14115d12
DTITLE=Colin Linden - Sad and Beautiful World 1975-1999
DYEAR=2004
DGENRE=Blues/Rock
TTITLE0=Love Everyone
TTITLE1=When The Spirit Comes
TTITLE2=When The Carnival Ends
TTITLE3=No Rest For The Wicked
TTITLE4=Go Wherever You Want To
TTITLE5=Don't Tell Me
TTITLE6=They're Red Hot
TTITLE7=Just Like I Treat You
TTITLE8=Raging River
TTITLE9=The Way Heaven Feels
TTITLE10=Whispering Pines
TTITLE11=Love's Like Rain
TTITLE12=Vale Of Tears
TTITLE13=Homesick In My Own Backyard
TTITLE14=Mean Old Frisco
TTITLE15=New Matchbox
TTITLE16=Sad and Beautiful World
TTITLE17=Remedy
EXTD=
EXTT0=
EXTT1=
EXTT2=
EXTT3=
EXTT4=
EXTT5=
EXTT6=
EXTT7=
EXTT8=
EXTT9=
EXTT10=
EXTT11=
EXTT12=
EXTT13=
EXTT14=
EXTT15=
EXTT16=
EXTT17=
PLAYORDER=
